<svg
  width="65"
  height="65"
  viewBox="0 0 65 65"
  fill="none"
  xmlns="http://www.w3.org/2000/svg"
>
    <path
    d="M56.875 21.6667C56.3279 21.6667 43.7395 21.7452 32.5 27.105C21.2604 21.7452 8.67204 21.6667 8.12496 21.6667C7.40666 21.6667 6.71779 21.952 6.20988 22.4599C5.70197 22.9679 5.41663 23.6567 5.41663 24.375V51.1415C5.41663 51.5049 5.48977 51.8646 5.63168 52.1991C5.77359 52.5336 5.98138 52.8362 6.24267 53.0888C6.77079 53.5979 7.54267 53.9148 8.21704 53.8471L8.561 53.8444C10.4108 53.8444 20.196 54.1098 31.3543 59.3288C31.3977 59.3504 31.4464 59.3423 31.4898 59.3586C31.812 59.4913 32.1506 59.5834 32.5 59.5834C32.8493 59.5834 33.1879 59.4913 33.5129 59.3586C33.5562 59.3423 33.605 59.3504 33.6483 59.3288C44.8066 54.1071 54.5918 53.8444 56.4416 53.8444L56.7856 53.8471C57.4302 53.9148 58.2291 53.5979 58.76 53.0888C59.2854 52.5769 59.5833 51.8727 59.5833 51.1415V24.375C59.5833 23.6567 59.298 22.9679 58.79 22.4599C58.2821 21.952 57.5933 21.6667 56.875 21.6667ZM10.8333 27.2161C14.8552 27.5167 22.6985 28.5161 29.7916 31.7986V52.7665C21.6666 49.5842 14.652 48.7202 10.8333 48.4981V27.2161ZM54.1666 48.4981C50.3479 48.7202 43.3333 49.5842 35.2083 52.7665V31.7986C42.3014 28.5161 50.1448 27.5167 54.1666 27.2161V48.4981Z"
    fill="#F8F8F8"
  />
    <path
    d="M32.5 21.6667C36.9873 21.6667 40.625 18.029 40.625 13.5417C40.625 9.05437 36.9873 5.41669 32.5 5.41669C28.0127 5.41669 24.375 9.05437 24.375 13.5417C24.375 18.029 28.0127 21.6667 32.5 21.6667Z"
    fill="#F8F8F8"
  />
</svg>
