<svg
  width="20"
  height="20"
  viewBox="0 0 20 20"
  fill="none"
  xmlns="http://www.w3.org/2000/svg"
>
    <path
    d="M3.73631 2.61008C3.66234 2.53611 3.57453 2.47744 3.47788 2.43741C3.38124 2.39737 3.27765 2.37677 3.17304 2.37677C3.06844 2.37677 2.96485 2.39737 2.86821 2.43741C2.77156 2.47744 2.68375 2.53611 2.60978 2.61008C2.46039 2.75947 2.37646 2.96208 2.37646 3.17335C2.37646 3.38462 2.46039 3.58723 2.60978 3.73662L7.07624 8.20308C6.79366 8.72876 6.68798 9.3315 6.77485 9.92196C6.86172 10.5124 7.13653 11.0592 7.55854 11.4812C7.98055 11.9032 8.52731 12.178 9.11777 12.2649C9.70823 12.3518 10.311 12.2461 10.8366 11.9635L15.3031 16.4299C15.3769 16.5043 15.4646 16.5633 15.5613 16.6036C15.658 16.6439 15.7616 16.6646 15.8664 16.6646C15.9711 16.6646 16.0748 16.6439 16.1715 16.6036C16.2682 16.5633 16.3559 16.5043 16.4296 16.4299C16.504 16.3562 16.563 16.2685 16.6033 16.1718C16.6436 16.0751 16.6643 15.9714 16.6643 15.8667C16.6643 15.762 16.6436 15.6583 16.6033 15.5616C16.563 15.4649 16.504 15.3772 16.4296 15.3034L3.73631 2.61008ZM9.51971 10.71C9.2041 10.71 8.90142 10.5846 8.67825 10.3615C8.45509 10.1383 8.32971 9.83562 8.32971 9.52002C8.32971 9.52002 8.32971 9.48035 8.32971 9.46448L9.56731 10.7021L9.51971 10.71Z"
    fill="#231F20"
  />
    <path
    d="M9.69427 13.4867C6.28294 13.566 4.04574 10.6386 3.3476 9.52C3.8446 8.72721 4.4419 8.00193 5.12467 7.36213L3.96641 6.24353C3.07099 7.08722 2.3039 8.05744 1.68954 9.12333C1.61991 9.24393 1.58325 9.38074 1.58325 9.52C1.58325 9.65926 1.61991 9.79606 1.68954 9.91666C2.18934 10.7814 4.86287 15.0733 9.53561 15.0733H9.73394C10.6126 15.0473 11.4799 14.8674 12.2964 14.5418L11.0429 13.2883C10.6021 13.4043 10.1498 13.4708 9.69427 13.4867Z"
    fill="#231F20"
  />
    <path
    d="M17.3498 9.12337C16.8421 8.24277 14.0416 3.8239 9.30539 3.9667C8.42673 3.99277 7.55945 4.17267 6.74292 4.49824L7.99639 5.7517C8.43719 5.63574 8.88953 5.56922 9.34505 5.55337C12.7485 5.4661 14.9857 8.40144 15.6917 9.52004C15.1825 10.3152 14.5717 11.0406 13.875 11.6779L15.0729 12.7965C15.9796 11.955 16.7574 10.9847 17.3815 9.9167C17.4464 9.79333 17.4776 9.65505 17.472 9.51578C17.4665 9.37651 17.4243 9.24116 17.3498 9.12337Z"
    fill="#231F20"
  />
    </svg>
