<svg
  width="30"
  height="30"
  viewBox="0 0 30 30"
  fill="none"
  xmlns="http://www.w3.org/2000/svg"
>
    <path
    fill-rule="evenodd"
    clip-rule="evenodd"
    d="M6.25 11.25C5.58696 11.25 4.95107 10.9866 4.48223 10.5178C4.01339 10.0489 3.75 9.41304 3.75 8.75V5C3.75 4.33696 4.01339 3.70107 4.48223 3.23223C4.95107 2.76339 5.58696 2.5 6.25 2.5H11.25C11.913 2.5 12.5489 2.76339 13.0178 3.23223C13.4866 3.70107 13.75 4.33696 13.75 5V8.75C13.75 9.41304 13.4866 10.0489 13.0178 10.5178C12.5489 10.9866 11.913 11.25 11.25 11.25H6.25ZM6.25 27.5C5.58696 27.5 4.95107 27.2366 4.48223 26.7678C4.01339 26.2989 3.75 25.663 3.75 25V15C3.75 14.337 4.01339 13.7011 4.48223 13.2322C4.95107 12.7634 5.58696 12.5 6.25 12.5H11.25C11.913 12.5 12.5489 12.7634 13.0178 13.2322C13.4866 13.7011 13.75 14.337 13.75 15V25C13.75 25.663 13.4866 26.2989 13.0178 26.7678C12.5489 27.2366 11.913 27.5 11.25 27.5H6.25ZM18.75 27.5C18.087 27.5 17.4511 27.2366 16.9822 26.7678C16.5134 26.2989 16.25 25.663 16.25 25V22.5C16.25 21.837 16.5134 21.2011 16.9822 20.7322C17.4511 20.2634 18.087 20 18.75 20H23.75C24.413 20 25.0489 20.2634 25.5178 20.7322C25.9866 21.2011 26.25 21.837 26.25 22.5V25C26.25 25.663 25.9866 26.2989 25.5178 26.7678C25.0489 27.2366 24.413 27.5 23.75 27.5H18.75ZM18.75 17.5C18.087 17.5 17.4511 17.2366 16.9822 16.7678C16.5134 16.2989 16.25 15.663 16.25 15V5C16.25 4.33696 16.5134 3.70107 16.9822 3.23223C17.4511 2.76339 18.087 2.5 18.75 2.5H23.75C24.413 2.5 25.0489 2.76339 25.5178 3.23223C25.9866 3.70107 26.25 4.33696 26.25 5V15C26.25 15.663 25.9866 16.2989 25.5178 16.7678C25.0489 17.2366 24.413 17.5 23.75 17.5H18.75Z"
    fill="#F8F8F8"
  />
    </svg>
