<svg
  width="61"
  height="49"
  viewBox="0 0 61 49"
  fill="none"
  xmlns="http://www.w3.org/2000/svg"
>
    <path
    d="M6.8625 0C5.04245 0 3.29695 0.725975 2.00998 2.01822C0.723011 3.31046 0 5.06312 0 6.89062V14.5469C0 16.3744 0.723011 18.127 2.00998 19.4193C3.29695 20.7115 5.04245 21.4375 6.8625 21.4375H14.4875C16.3075 21.4375 18.0531 20.7115 19.34 19.4193C20.627 18.127 21.35 16.3744 21.35 14.5469V6.89062C21.35 5.06312 20.627 3.31046 19.34 2.01822C18.0531 0.725975 16.3075 0 14.4875 0H6.8625ZM4.575 6.89062C4.575 6.28146 4.816 5.69724 5.24499 5.26649C5.67398 4.83574 6.25582 4.59375 6.8625 4.59375H14.4875C15.0942 4.59375 15.676 4.83574 16.105 5.26649C16.534 5.69724 16.775 6.28146 16.775 6.89062V14.5469C16.775 15.156 16.534 15.7403 16.105 16.171C15.676 16.6018 15.0942 16.8438 14.4875 16.8438H6.8625C6.25582 16.8438 5.67398 16.6018 5.24499 16.171C4.816 15.7403 4.575 15.156 4.575 14.5469V6.89062ZM28.2125 3.0625C27.6058 3.0625 27.024 3.30449 26.595 3.73524C26.166 4.16599 25.925 4.75021 25.925 5.35938C25.925 5.96854 26.166 6.55276 26.595 6.98351C27.024 7.41426 27.6058 7.65625 28.2125 7.65625H58.7125C59.3192 7.65625 59.901 7.41426 60.33 6.98351C60.759 6.55276 61 5.96854 61 5.35938C61 4.75021 60.759 4.16599 60.33 3.73524C59.901 3.30449 59.3192 3.0625 58.7125 3.0625H28.2125ZM28.2125 12.25C27.6058 12.25 27.024 12.492 26.595 12.9227C26.166 13.3535 25.925 13.9377 25.925 14.5469C25.925 15.156 26.166 15.7403 26.595 16.171C27.024 16.6018 27.6058 16.8438 28.2125 16.8438H49.5625C50.1692 16.8438 50.751 16.6018 51.18 16.171C51.609 15.7403 51.85 15.156 51.85 14.5469C51.85 13.9377 51.609 13.3535 51.18 12.9227C50.751 12.492 50.1692 12.25 49.5625 12.25H28.2125ZM6.8625 27.5625C5.04245 27.5625 3.29695 28.2885 2.00998 29.5807C0.723011 30.873 0 32.6256 0 34.4531V42.1094C0 43.0143 0.177504 43.9103 0.522377 44.7463C0.86725 45.5823 1.37274 46.3419 2.00998 46.9818C2.64722 47.6216 3.40374 48.1292 4.23633 48.4755C5.06893 48.8218 5.9613 49 6.8625 49H14.4875C15.3887 49 16.2811 48.8218 17.1137 48.4755C17.9463 48.1292 18.7028 47.6216 19.34 46.9818C19.9773 46.3419 20.4827 45.5823 20.8276 44.7463C21.1725 43.9103 21.35 43.0143 21.35 42.1094V34.4531C21.35 32.6256 20.627 30.873 19.34 29.5807C18.0531 28.2885 16.3075 27.5625 14.4875 27.5625H6.8625ZM4.575 34.4531C4.575 33.844 4.816 33.2597 5.24499 32.829C5.67398 32.3982 6.25582 32.1562 6.8625 32.1562H14.4875C15.0942 32.1562 15.676 32.3982 16.105 32.829C16.534 33.2597 16.775 33.844 16.775 34.4531V42.1094C16.775 42.7185 16.534 43.3028 16.105 43.7335C15.676 44.1643 15.0942 44.4062 14.4875 44.4062H6.8625C6.25582 44.4062 5.67398 44.1643 5.24499 43.7335C4.816 43.3028 4.575 42.7185 4.575 42.1094V34.4531ZM28.2125 30.625C27.6058 30.625 27.024 30.867 26.595 31.2977C26.166 31.7285 25.925 32.3127 25.925 32.9219C25.925 33.531 26.166 34.1153 26.595 34.546C27.024 34.9768 27.6058 35.2188 28.2125 35.2188H58.7125C59.3192 35.2187 59.901 34.9768 60.33 34.546C60.759 34.1153 61 33.531 61 32.9219C61 32.3127 60.759 31.7285 60.33 31.2977C59.901 30.867 59.3192 30.625 58.7125 30.625H28.2125ZM28.2125 39.8125C27.6058 39.8125 27.024 40.0545 26.595 40.4852C26.166 40.916 25.925 41.5002 25.925 42.1094C25.925 42.7185 26.166 43.3028 26.595 43.7335C27.024 44.1643 27.6058 44.4062 28.2125 44.4062H49.5625C50.1692 44.4062 50.751 44.1643 51.18 43.7335C51.609 43.3028 51.85 42.7185 51.85 42.1094C51.85 41.5002 51.609 40.916 51.18 40.4852C50.751 40.0545 50.1692 39.8125 49.5625 39.8125H28.2125Z"
    fill="white"
  />
    </svg>
