<svg
  width="13"
  height="16"
  viewBox="0 0 13 16"
  fill="none"
  xmlns="http://www.w3.org/2000/svg"
>
    <path
    d="M6.73034 0.403076C7.32899 0.403022 7.90486 0.632561 8.33933 1.04441C8.7738 1.45625 9.03378 2.01904 9.06571 2.61684L9.06882 2.74156H12.4986C12.6171 2.7416 12.7312 2.78661 12.8178 2.86751C12.9043 2.94841 12.957 3.05916 12.9651 3.17738C12.9731 3.2956 12.936 3.41248 12.8613 3.5044C12.7865 3.59633 12.6796 3.65644 12.5622 3.67259L12.4986 3.67695H11.8382L11.0774 13.0639C11.03 13.6495 10.7638 14.1958 10.3319 14.5941C9.89996 14.9924 9.33395 15.2135 8.74643 15.2135H4.71426C4.12673 15.2135 3.56072 14.9924 3.12881 14.5941C2.69689 14.1958 2.43073 13.6495 2.38326 13.0639L1.62185 3.67695H0.962081C0.849063 3.67695 0.739868 3.63602 0.654692 3.56173C0.569516 3.48745 0.51412 3.38483 0.49875 3.27286L0.494385 3.20926C0.49439 3.09624 0.535319 2.98704 0.609605 2.90187C0.68389 2.81669 0.786506 2.76129 0.898475 2.74592L0.962081 2.74156H4.39186C4.39186 2.12135 4.63823 1.52655 5.07678 1.088C5.51533 0.649451 6.11014 0.403076 6.73034 0.403076ZM10.9003 3.67695H2.56036L3.31553 12.9885C3.34405 13.3398 3.50378 13.6676 3.76295 13.9065C4.02212 14.1455 4.36174 14.2781 4.71426 14.2781H8.74643C9.09894 14.2781 9.43856 14.1455 9.69773 13.9065C9.95691 13.6676 10.1166 13.3398 10.1452 12.9885L10.8997 3.67695H10.9003ZM5.32725 6.01544C5.44027 6.01544 5.54946 6.05637 5.63464 6.13066C5.71982 6.20494 5.77521 6.30756 5.79058 6.41953L5.79495 6.48313V11.4719C5.79491 11.5904 5.7499 11.7045 5.669 11.791C5.5881 11.8776 5.47735 11.9303 5.35913 11.9384C5.24091 11.9464 5.12403 11.9093 5.0321 11.8346C4.94018 11.7598 4.88007 11.6529 4.86392 11.5355L4.85955 11.4719V6.48313C4.85955 6.35909 4.90883 6.24013 4.99654 6.15242C5.08425 6.06471 5.20321 6.01544 5.32725 6.01544ZM8.13343 6.01544C8.24645 6.01544 8.35564 6.05637 8.44082 6.13066C8.526 6.20494 8.58139 6.30756 8.59676 6.41953L8.60113 6.48313V11.4719C8.60109 11.5904 8.55608 11.7045 8.47518 11.791C8.39428 11.8776 8.28353 11.9303 8.16531 11.9384C8.04709 11.9464 7.93021 11.9093 7.83828 11.8346C7.74636 11.7598 7.68625 11.6529 7.6701 11.5355L7.66573 11.4719V6.48313C7.66573 6.35909 7.71501 6.24013 7.80272 6.15242C7.89043 6.06471 8.00939 6.01544 8.13343 6.01544ZM6.73034 1.33847C6.37481 1.33843 6.03252 1.47335 5.77265 1.71597C5.51278 1.9586 5.3547 2.29083 5.33037 2.64553L5.32725 2.74156H8.13343L8.13031 2.64553C8.10598 2.29083 7.9479 1.9586 7.68803 1.71597C7.42816 1.47335 7.08587 1.33843 6.73034 1.33847Z"
    fill="#F24E1E"
  />
    </svg>
