<svg
  width="16"
  height="16"
  viewBox="0 0 16 16"
  fill="none"
  xmlns="http://www.w3.org/2000/svg"
>
    <path
    d="M7.17318 2.46448H2.5655C2.21635 2.46448 1.8815 2.60318 1.63461 2.85007C1.38772 3.09695 1.24902 3.43181 1.24902 3.78096V12.9963C1.24902 13.3455 1.38772 13.6803 1.63461 13.9272C1.8815 14.1741 2.21635 14.3128 2.5655 14.3128H11.7809C12.13 14.3128 12.4649 14.1741 12.7117 13.9272C12.9586 13.6803 13.0973 13.3455 13.0973 12.9963V8.38864"
    stroke="#19AE31"
    stroke-width="2"
    stroke-linecap="round"
    stroke-linejoin="round"
  />
    <path
    d="M12.11 1.47709C12.3719 1.21523 12.727 1.06812 13.0974 1.06812C13.4677 1.06812 13.8229 1.21523 14.0847 1.47709C14.3466 1.73896 14.4937 2.09412 14.4937 2.46445C14.4937 2.83478 14.3466 3.18995 14.0847 3.45181L7.83144 9.70509L5.19849 10.3633L5.85673 7.73037L12.11 1.47709Z"
    stroke="#19AE31"
    stroke-width="2"
    stroke-linecap="round"
    stroke-linejoin="round"
  />
    </svg>
