<svg
  width="74"
  height="74"
  viewBox="0 0 74 74"
  fill="none"
  xmlns="http://www.w3.org/2000/svg"
>
    <path
    d="M47.493 54.0029C49.6333 51.163 51.1028 47.5191 51.7139 43.5368C52.3249 39.5545 52.0496 35.4148 50.9233 31.6464C49.7969 27.8781 47.8706 24.6525 45.3905 22.3816C42.9104 20.1107 39.9892 18.8978 37 18.8978C34.0109 18.8978 31.0896 20.1107 28.6095 22.3816C26.1294 24.6525 24.2031 27.8781 23.0767 31.6464C21.9504 35.4148 21.6751 39.5545 22.2862 43.5368C22.8972 47.5191 24.3667 51.163 26.507 54.0029C22.4743 56.9616 19.228 61.5724 17.2281 67.1821C16.8218 68.3089 16.761 69.6093 17.0592 70.7971C17.3574 71.985 17.99 72.963 18.818 73.516C19.646 74.0689 20.6014 74.1516 21.4742 73.7459C22.347 73.3401 23.0656 72.4791 23.4719 71.3522C24.7027 67.8935 26.6245 64.9765 29.0171 62.9355C31.4097 60.8946 34.1763 59.8121 37 59.8121C39.8237 59.8121 42.5903 60.8946 44.9829 62.9355C47.3755 64.9765 49.2973 67.8935 50.5281 71.3522C50.815 72.1453 51.2597 72.8128 51.8116 73.2788C52.3635 73.7448 53.0005 73.9905 53.65 73.988C54.1704 73.9823 54.6835 73.8211 55.1531 73.516C55.5664 73.2469 55.9364 72.8691 56.2418 72.4043C56.5472 71.9396 56.7819 71.3971 56.9324 70.8082C57.0829 70.2193 57.1462 69.5956 57.1187 68.9733C57.0911 68.3509 56.9733 67.7421 56.7719 67.1821C54.772 61.5724 51.5257 56.9616 47.493 54.0029ZM28.9063 39.3681C28.9063 37.1894 29.3809 35.0597 30.2703 33.2482C31.1597 31.4367 32.4237 30.0249 33.9027 29.1911C35.3816 28.3574 37.009 28.1393 38.579 28.5643C40.149 28.9893 41.5912 30.0384 42.7232 31.579C43.8551 33.1195 44.6259 35.0823 44.9382 37.2191C45.2505 39.3559 45.0902 41.5707 44.4777 43.5835C43.8651 45.5963 42.8277 47.3167 41.4967 48.5271C40.1656 49.7375 38.6008 50.3835 37 50.3835C34.8558 50.3731 32.8015 49.2093 31.2853 47.1457C29.7691 45.0822 28.9139 42.2864 28.9063 39.3681ZM72.6125 43.1448C71.8765 43.896 70.9514 44.2186 70.0407 44.0415C69.13 43.8645 68.3082 43.2023 67.7562 42.2006C66.6697 40.2092 65.3022 38.5328 63.7337 37.2696C62.1653 36.0064 60.4274 35.1817 58.6219 34.8439C57.9367 34.7043 57.298 34.2887 56.788 33.6506C56.2779 33.0126 55.9199 32.1813 55.7602 31.2639C55.6992 31.0869 55.6508 30.9025 55.6156 30.7131C55.4985 30.1137 55.47 29.4886 55.5319 28.8742C55.5938 28.2597 55.7447 27.6681 55.976 27.1337C56.2073 26.5993 56.5143 26.1327 56.8792 25.7612C57.2441 25.3896 57.6596 25.1205 58.1016 24.9693C59.0406 24.6345 59.9026 23.9832 60.608 23.0757C61.3134 22.1681 61.8395 21.0333 62.1378 19.7761C62.4362 18.5189 62.4971 17.1797 62.315 15.882C62.1329 14.5843 61.7136 13.3699 61.0959 12.3509C60.4781 11.3318 59.6818 10.5408 58.7803 10.0508C57.8787 9.56093 56.9011 9.38784 55.9375 9.54755C54.9739 9.70727 54.0553 10.1946 53.2666 10.9647C52.4778 11.7348 51.8442 12.7628 51.4242 13.9539C51.252 14.5605 50.9897 15.1121 50.6535 15.5743C50.3173 16.0364 49.9146 16.399 49.4706 16.6394C49.0267 16.8797 48.551 16.9927 48.0734 16.9711C47.5959 16.9495 47.1268 16.7939 46.6955 16.514C46.2642 16.2341 45.88 15.836 45.5671 15.3445C45.2542 14.8531 45.0192 14.279 44.877 13.6582C44.7348 13.0373 44.6883 12.3832 44.7405 11.7368C44.7927 11.0904 44.9425 10.4657 45.1805 9.90176C45.9545 7.67704 47.0683 5.70258 48.4475 4.11015C49.8267 2.51772 51.4396 1.34394 53.1786 0.667144C54.9175 -0.00965386 56.7425 -0.173907 58.5318 0.185348C60.3211 0.544603 62.0335 1.4191 63.5548 2.75049C65.0761 4.08187 66.3712 5.83953 67.3538 7.90616C68.3363 9.97278 68.9837 12.3009 69.2528 14.735C69.5219 17.1692 69.4063 19.6534 68.914 22.022C68.4217 24.3906 67.5638 26.5891 66.3977 28.4707C69.1145 30.4224 71.4752 33.1783 73.3063 36.5355C73.5796 37.0315 73.7784 37.5959 73.8915 38.1964C74.0045 38.797 74.0296 39.422 73.9651 40.0357C73.9007 40.6494 73.7481 41.2399 73.516 41.7733C73.2839 42.3068 72.9769 42.7728 72.6125 43.1448ZM15.3781 34.8439C13.5726 35.1817 11.8347 36.0064 10.2663 37.2696C8.69781 38.5328 7.33029 40.2092 6.24376 42.2006C5.91761 42.7825 5.49801 43.2551 5.01704 43.5824C4.53608 43.9097 4.00648 44.083 3.46876 44.089C2.7189 44.0834 1.98986 43.7527 1.38751 43.1448C0.651538 42.3936 0.16498 41.2752 0.0348769 40.0357C-0.0952265 38.7962 0.141782 37.5372 0.693764 36.5355C2.52481 33.1783 4.88555 30.4224 7.60236 28.4707C6.43622 26.5891 5.57836 24.3906 5.08601 22.022C4.59367 19.6534 4.47816 17.1692 4.74721 14.735C5.01626 12.3009 5.66367 9.97278 6.64624 7.90616C7.62882 5.83953 8.92395 4.08187 10.4452 2.75049C11.9665 1.4191 13.6789 0.544603 15.4682 0.185348C17.2575 -0.173907 19.0825 -0.00965386 20.8214 0.667144C22.5604 1.34394 24.1733 2.51772 25.5525 4.11015C26.9317 5.70258 28.0455 7.67704 28.8195 9.90176C29.0575 10.4657 29.2073 11.0904 29.2595 11.7368C29.3117 12.3832 29.2653 13.0373 29.123 13.6582C28.9808 14.279 28.7458 14.8531 28.4329 15.3445C28.12 15.836 27.7358 16.2341 27.3045 16.514C26.8733 16.7939 26.4041 16.9495 25.9266 16.9711C25.449 16.9927 24.9734 16.8797 24.5294 16.6394C24.0854 16.399 23.6827 16.0364 23.3465 15.5743C23.0104 15.1121 22.748 14.5605 22.5758 13.9539C22.1558 12.7628 21.5222 11.7348 20.7334 10.9647C19.9447 10.1946 19.0261 9.70727 18.0625 9.54755C17.0989 9.38784 16.1213 9.56093 15.2198 10.0508C14.3182 10.5408 13.5219 11.3318 12.9041 12.3509C12.2864 13.3699 11.8671 14.5843 11.685 15.882C11.5029 17.1797 11.5638 18.5189 11.8622 19.7761C12.1605 21.0333 12.6866 22.1681 13.392 23.0757C14.0974 23.9832 14.9594 24.6345 15.8984 24.9693C16.3404 25.1205 16.7559 25.3896 17.1208 25.7612C17.4857 26.1327 17.7927 26.5993 18.024 27.1337C18.2553 27.6681 18.4062 28.2597 18.4681 28.8742C18.53 29.4886 18.5015 30.1137 18.3844 30.7131C18.3492 30.9025 18.3008 31.0869 18.2399 31.2639C18.0801 32.1813 17.7221 33.0126 17.2121 33.6506C16.702 34.2887 16.0633 34.7043 15.3781 34.8439Z"
    fill="black"
  />
    </svg>
