<svg background-color="" width="30" height="30" viewBox="0 0 30 30" fill="paleBlue" xmlns="http://www.w3.org/2000/svg">
    <path d="M19.2539 21.8931C20.1216 20.7417 20.7174 19.2645 20.9651 17.6501C21.2128 16.0356 21.1012 14.3573 20.6446 12.8296C20.1879 11.3019 19.407 9.99424 18.4016 9.07361C17.3961 8.15299 16.2118 7.66126 15 7.66126C13.7882 7.66126 12.6039 8.15299 11.5984 9.07361C10.593 9.99424 9.81206 11.3019 9.35543 12.8296C8.8988 14.3573 8.78721 16.0356 9.03493 17.6501C9.28264 19.2645 9.87841 20.7417 10.7461 21.8931C9.11122 23.0925 7.79515 24.9618 6.98438 27.236C6.81965 27.6928 6.79502 28.22 6.91589 28.7015C7.03677 29.1831 7.29324 29.5796 7.62891 29.8038C7.96457 30.028 8.35193 30.0615 8.70576 29.897C9.05958 29.7325 9.3509 29.3834 9.51563 28.9266C10.0146 27.5244 10.7937 26.3418 11.7637 25.5144C12.7336 24.687 13.8553 24.2481 15 24.2481C16.1448 24.2481 17.2664 24.687 18.2363 25.5144C19.2063 26.3418 19.9854 27.5244 20.4844 28.9266C20.6007 29.2481 20.781 29.5187 21.0047 29.7076C21.2285 29.8965 21.4867 29.9962 21.75 29.9952C21.961 29.9928 22.169 29.9275 22.3594 29.8038C22.5269 29.6947 22.6769 29.5415 22.8007 29.3531C22.9245 29.1647 23.0197 28.9448 23.0807 28.706C23.1417 28.4673 23.1674 28.2144 23.1562 27.9621C23.1451 27.7098 23.0973 27.463 23.0156 27.236C22.2048 24.9618 20.8888 23.0925 19.2539 21.8931ZM11.7188 15.96C11.7188 15.0768 11.9112 14.2134 12.2717 13.479C12.6323 12.7446 13.1448 12.1722 13.7443 11.8342C14.3439 11.4962 15.0036 11.4078 15.6401 11.5801C16.2766 11.7524 16.8613 12.1777 17.3202 12.8023C17.7791 13.4268 18.0916 14.2225 18.2182 15.0888C18.3448 15.9551 18.2798 16.853 18.0315 17.669C17.7831 18.485 17.3626 19.1824 16.823 19.6731C16.2834 20.1638 15.649 20.4258 15 20.4258C14.1307 20.4215 13.2979 19.9497 12.6832 19.1131C12.0685 18.2766 11.7218 17.1431 11.7188 15.96V15.96ZM29.4375 17.4911C29.1391 17.7957 28.7641 17.9265 28.3949 17.8547C28.0257 17.7829 27.6925 17.5144 27.4687 17.1084C27.0283 16.301 26.4739 15.6214 25.838 15.1093C25.2021 14.5972 24.4976 14.2628 23.7656 14.1259C23.4879 14.0693 23.2289 13.9008 23.0221 13.6422C22.8154 13.3835 22.6702 13.0465 22.6055 12.6745C22.5808 12.6028 22.5611 12.528 22.5469 12.4513C22.4994 12.2083 22.4878 11.9548 22.5129 11.7057C22.538 11.4566 22.5992 11.2168 22.693 11.0001C22.7867 10.7835 22.9112 10.5944 23.0591 10.4437C23.2071 10.2931 23.3755 10.184 23.5547 10.1227C23.9354 9.98696 24.2848 9.72294 24.5708 9.35499C24.8568 8.98705 25.0701 8.52702 25.191 8.01735C25.312 7.50767 25.3367 6.96475 25.2628 6.43866C25.189 5.91257 25.019 5.42025 24.7686 5.0071C24.5182 4.59396 24.1953 4.27329 23.8298 4.07467C23.4644 3.87605 23.068 3.80588 22.6774 3.87063C22.2867 3.93538 21.9143 4.13296 21.5946 4.44515C21.2748 4.75735 21.0179 5.1741 20.8477 5.65698C20.7779 5.9029 20.6715 6.12654 20.5352 6.31389C20.3989 6.50124 20.2356 6.64824 20.0557 6.74569C19.8757 6.84313 19.6828 6.88892 19.4892 6.88017C19.2956 6.87143 19.1054 6.80834 18.9306 6.69487C18.7557 6.5814 18.6 6.41998 18.4732 6.22075C18.3463 6.02152 18.251 5.78877 18.1934 5.53709C18.1357 5.28541 18.1169 5.02023 18.138 4.75817C18.1592 4.49612 18.2199 4.24284 18.3164 4.01423C18.6302 3.11231 19.0818 2.31186 19.6409 1.66628C20.2 1.0207 20.8539 0.544841 21.5589 0.270464C22.2639 -0.00391372 23.0037 -0.0705028 23.7291 0.0751411C24.4545 0.220785 25.1487 0.575312 25.7655 1.11506C26.3822 1.65481 26.9072 2.36738 27.3056 3.2052C27.7039 4.04302 27.9664 4.98683 28.0755 5.97366C28.1845 6.96048 28.1377 7.96761 27.9381 8.92785C27.7385 9.88809 27.3907 10.7794 26.918 11.5422C28.0194 12.3334 28.9764 13.4507 29.7187 14.8117C29.8296 15.0128 29.9102 15.2416 29.956 15.485C30.0018 15.7285 30.012 15.9819 29.9859 16.2307C29.9597 16.4795 29.8979 16.7189 29.8038 16.9351C29.7097 17.1514 29.5852 17.3403 29.4375 17.4911V17.4911ZM6.23438 14.1259C5.50241 14.2628 4.79786 14.5972 4.162 15.1093C3.52614 15.6214 2.97174 16.301 2.53126 17.1084C2.39903 17.3443 2.22892 17.5359 2.03394 17.6686C1.83895 17.8012 1.62425 17.8715 1.40626 17.8739C1.10226 17.8717 0.806701 17.7376 0.562506 17.4911C0.264137 17.1866 0.0668839 16.7332 0.0141393 16.2307C-0.0386053 15.7282 0.0574793 15.2178 0.281256 14.8117C1.02357 13.4507 1.98063 12.3334 3.08204 11.5422C2.60928 10.7794 2.2615 9.88809 2.0619 8.92785C1.8623 7.96761 1.81547 6.96048 1.92455 5.97366C2.03362 4.98683 2.29608 4.04302 2.69442 3.2052C3.09276 2.36738 3.61782 1.65481 4.23455 1.11506C4.85128 0.575312 5.5455 0.220785 6.27089 0.0751411C6.99628 -0.0705028 7.73615 -0.00391372 8.44113 0.270464C9.1461 0.544841 9.79998 1.0207 10.3591 1.66628C10.9183 2.31186 11.3698 3.11231 11.6836 4.01423C11.7801 4.24284 11.8408 4.49612 11.862 4.75817C11.8831 5.02023 11.8643 5.28541 11.8066 5.53709C11.749 5.78877 11.6537 6.02152 11.5269 6.22075C11.4 6.41998 11.2443 6.5814 11.0694 6.69487C10.8946 6.80834 10.7044 6.87143 10.5108 6.88017C10.3172 6.88892 10.1243 6.84313 9.94434 6.74569C9.76435 6.64824 9.6011 6.50124 9.46481 6.31389C9.32852 6.12654 9.22215 5.9029 9.15235 5.65698C8.98208 5.1741 8.72522 4.75735 8.40545 4.44515C8.08568 4.13296 7.7133 3.93538 7.32264 3.87063C6.93199 3.80588 6.53565 3.87605 6.17017 4.07467C5.80469 4.27329 5.48185 4.59396 5.2314 5.0071C4.98096 5.42025 4.81099 5.91257 4.73717 6.43866C4.66334 6.96475 4.68804 7.50767 4.80899 8.01735C4.92993 8.52702 5.14323 8.98705 5.4292 9.35499C5.71518 9.72294 6.06463 9.98696 6.44532 10.1227C6.62449 10.184 6.79294 10.2931 6.94087 10.4437C7.0888 10.5944 7.21326 10.7835 7.30702 11.0001C7.40079 11.2168 7.46199 11.4566 7.48707 11.7057C7.51216 11.9548 7.50062 12.2083 7.45313 12.4513C7.43887 12.528 7.41925 12.6028 7.39454 12.6745C7.32976 13.0465 7.18463 13.3835 6.97786 13.6422C6.77109 13.9008 6.51214 14.0693 6.23438 14.1259V14.1259Z" fill="#F8F8F8"/>
</svg>

   