<svg
  width="17"
  height="11"
  viewBox="0 0 17 11"
  fill="none"
  xmlns="http://www.w3.org/2000/svg"
>
    <path
    d="M16.3063 5.50235C14.6718 2.48068 11.8054 0.652161 8.63333 0.652161C5.46131 0.652161 2.59 2.48068 0.970034 5.50235L0.834229 5.73031L0.960333 5.96311C2.59485 8.98478 5.46131 10.8133 8.63333 10.8133C11.8054 10.8133 14.6767 9.00903 16.3063 5.96311L16.4324 5.73031L16.3063 5.50235ZM8.63333 9.81901C5.90267 9.81901 3.39513 8.29605 1.94007 5.73031C3.39513 3.16456 5.90267 1.6416 8.63333 1.6416C11.364 1.6416 13.8424 3.16941 15.3217 5.73031C13.8424 8.29605 11.3591 9.81901 8.63333 9.81901Z"
    fill="black"
  />
    <path
    d="M8.77389 2.41763C8.11627 2.42243 7.47481 2.62201 6.93054 2.99116C6.38628 3.3603 5.96361 3.88246 5.71593 4.49169C5.46825 5.10091 5.40667 5.76987 5.53896 6.41407C5.67125 7.05827 5.99148 7.64882 6.45921 8.11113C6.92693 8.57344 7.52117 8.88678 8.16687 9.01156C8.81257 9.13634 9.48077 9.06697 10.0871 8.81221C10.6934 8.55746 11.2106 8.12874 11.5734 7.58021C11.9361 7.03168 12.1282 6.38795 12.1254 5.73031C12.1235 5.29255 12.0352 4.85947 11.8656 4.45588C11.696 4.0523 11.4485 3.68614 11.1371 3.37841C10.8258 3.07067 10.4568 2.82739 10.0513 2.66252C9.64573 2.49766 9.21165 2.41444 8.77389 2.41763ZM8.77389 8.10205C8.30937 8.09726 7.85662 7.95532 7.4725 7.69406C7.08838 7.43279 6.79002 7.06385 6.6149 6.63358C6.43978 6.2033 6.3957 5.73087 6.4882 5.27563C6.5807 4.82038 6.80566 4.40261 7.13481 4.0748C7.46397 3.74699 7.88265 3.52374 8.33827 3.4331C8.79389 3.34246 9.26613 3.38846 9.69569 3.56534C10.1252 3.74222 10.493 4.04208 10.7527 4.42726C11.0124 4.81244 11.1524 5.26577 11.1553 5.73031C11.1566 6.04295 11.0958 6.35274 10.9765 6.64171C10.8572 6.93068 10.6816 7.19309 10.4601 7.41371C10.2386 7.63433 9.97548 7.80878 9.68602 7.92694C9.39656 8.0451 9.08653 8.10462 8.77389 8.10205Z"
    fill="black"
  />
    </svg>
