<svg
  width="52"
  height="52"
  viewBox="0 0 52 52"
  fill="none"
  xmlns="http://www.w3.org/2000/svg"
>
    <path
    d="M23.9565 0.0804462C29.2057 -0.3334 34.4569 0.856301 39.0152 3.49213C43.5735 6.12797 47.224 10.0857 49.4838 14.8416C51.7436 19.5976 52.5061 24.9275 51.6705 30.1263C50.8348 35.3251 48.4404 40.1476 44.804 43.9558C41.1676 47.764 36.4606 50.3783 31.3059 51.4529C26.1512 52.5274 20.7917 52.0116 15.9366 49.9735C11.0815 47.9355 6.95965 44.4714 4.11638 40.0395C1.27311 35.6076 -0.157529 30.4169 0.0137666 25.1542C0.0233695 24.8341 0.0959256 24.519 0.227293 24.227C0.358661 23.9349 0.546268 23.6716 0.779401 23.452C1.01253 23.2325 1.28663 23.061 1.58603 22.9474C1.88544 22.8338 2.20429 22.7802 2.52439 22.7898C2.84449 22.7994 3.15956 22.872 3.45162 23.0033C3.74367 23.1347 4.00699 23.3223 4.22655 23.5555C4.4461 23.7886 4.61758 24.0627 4.73121 24.3621C4.84483 24.6615 4.89837 24.9803 4.88877 25.3004C4.72407 30.2822 6.32624 35.1618 9.412 39.0763C12.4978 42.9908 16.8683 45.6881 21.7508 46.6912C26.6333 47.6944 31.7133 46.9387 36.0925 44.5579C40.4716 42.1771 43.8679 38.3245 45.6806 33.6813C47.4934 29.0381 47.606 23.9035 45.9984 19.1853C44.3908 14.4672 41.1667 10.4694 36.8961 7.89901C32.6254 5.32859 27.5835 4.35105 22.6617 5.13927C17.7399 5.92748 13.2553 8.43066 10.001 12.2062L9.33802 13.0122H17.0698L17.4013 13.0382C17.9847 13.1185 18.5193 13.4072 18.9063 13.8511C19.2933 14.295 19.5065 14.864 19.5065 15.4529C19.5065 16.0419 19.2933 16.6109 18.9063 17.0548C18.5193 17.4986 17.9847 17.7874 17.4013 17.8677L17.0698 17.8904H4.06977L3.73827 17.8677C3.21127 17.7953 2.72242 17.5526 2.34628 17.1764C1.97015 16.8003 1.72738 16.3114 1.65502 15.7844L1.63227 15.4529V2.45295L1.65502 2.12145C1.72738 1.59445 1.97015 1.1056 2.34628 0.729464C2.72242 0.353327 3.21127 0.110559 3.73827 0.0381962L4.06977 0.0154463L4.40127 0.0381962C4.92826 0.110559 5.41711 0.353327 5.79325 0.729464C6.16938 1.1056 6.41215 1.59445 6.48452 2.12145L6.50727 2.45295L6.50402 8.8002C10.9648 3.73327 17.226 0.606138 23.9565 0.083696V0.0804462ZM25.185 13.0122L25.5165 13.0349C26.0435 13.1073 26.5324 13.3501 26.9085 13.7262C27.2846 14.1023 27.5274 14.5912 27.5998 15.1182L27.6225 15.4497V25.9959L33.31 25.9992L33.6415 26.0219C34.2274 26.0996 34.7651 26.3874 35.1546 26.8319C35.5441 27.2764 35.7588 27.8473 35.7588 28.4383C35.7588 29.0293 35.5441 29.6002 35.1546 30.0447C34.7651 30.4892 34.2274 30.7771 33.6415 30.8547L33.31 30.8742H25.185L24.8535 30.8547C24.326 30.7822 23.8368 30.5389 23.4606 30.1621C23.0844 29.7854 22.842 29.2958 22.7703 28.7682L22.7475 28.4367V15.4497L22.7703 15.1182C22.8426 14.5912 23.0854 14.1023 23.4615 13.7262C23.8377 13.3501 24.3265 13.1073 24.8535 13.0349L25.185 13.0122Z"
    fill="white"
  />
    </svg>
