<svg
  width="28"
  height="28"
  viewBox="0 0 28 28"
  fill="none"
  xmlns="http://www.w3.org/2000/svg"
>
    <path
    d="M13.9999 25.6667C7.55642 25.6667 2.33325 20.4435 2.33325 14C2.33325 7.5565 7.55642 2.33333 13.9999 2.33333C15.8114 2.33197 17.5981 2.75307 19.2183 3.56316C20.8385 4.37326 22.2475 5.55004 23.3333 7H20.1716C18.8244 5.81205 17.163 5.03808 15.3868 4.77096C13.6105 4.50385 11.795 4.75493 10.158 5.49408C8.52091 6.23323 7.13192 7.42905 6.15767 8.93805C5.18341 10.447 4.66527 12.2051 4.66542 14.0013C4.66557 15.7975 5.184 17.5554 6.15851 19.0643C7.13302 20.5731 8.52221 21.7687 10.1594 22.5076C11.7965 23.2465 13.6121 23.4972 15.3883 23.2298C17.1644 22.9624 18.8257 22.1882 20.1728 21H23.3344C22.2485 22.4501 20.8394 23.627 19.219 24.4371C17.5986 25.2472 15.8115 25.6682 13.9999 25.6667ZM22.1666 18.6667V15.1667H12.8333V12.8333H22.1666V9.33333L27.9999 14L22.1666 18.6667Z"
    fill="#F8F8F8"
  />
</svg>
