<svg
  width="16"
  height="18"
  viewBox="0 0 16 18"
  fill="none"
  xmlns="http://www.w3.org/2000/svg"
>
    <path
    d="M12.1264 7.25802C11.3984 7.77564 10.5024 8.00085 9.61618 7.88903C8.72991 7.77721 7.918 7.33652 7.34134 6.65428C6.76469 5.97205 6.46538 5.09807 6.50274 4.20556C6.5401 3.31305 6.9114 2.46714 7.54306 1.83549C8.17471 1.20383 9.02062 0.832534 9.91313 0.795173C10.8056 0.757812 11.6796 1.05712 12.3619 1.63377C13.0441 2.21043 13.4848 3.02234 13.5966 3.90861C13.7084 4.79488 13.4832 5.69081 12.9656 6.41885L15.0342 8.48668C15.0925 8.54104 15.1393 8.60659 15.1718 8.67942C15.2042 8.75226 15.2217 8.83088 15.2231 8.9106C15.2245 8.99033 15.2098 9.06952 15.18 9.14345C15.1501 9.21738 15.1057 9.28454 15.0493 9.34092C14.9929 9.3973 14.9257 9.44175 14.8518 9.47161C14.7779 9.50148 14.6987 9.51614 14.619 9.51474C14.5392 9.51333 14.4606 9.49588 14.3878 9.46343C14.315 9.43098 14.2494 9.38419 14.195 9.32585L12.1264 7.25802ZM12.4375 4.35418C12.4375 3.7243 12.1873 3.1202 11.7419 2.67481C11.2965 2.22941 10.6924 1.97918 10.0625 1.97918C9.43266 1.97918 8.82857 2.22941 8.38317 2.67481C7.93777 3.1202 7.68755 3.7243 7.68755 4.35418C7.68755 4.98407 7.93777 5.58816 8.38317 6.03356C8.82857 6.47896 9.43266 6.72918 10.0625 6.72918C10.6924 6.72918 11.2965 6.47896 11.7419 6.03356C12.1873 5.58816 12.4375 4.98407 12.4375 4.35418ZM12.0417 8.29352V16.819C12.0417 16.9283 12.0116 17.0354 11.9546 17.1287C11.8977 17.2219 11.8161 17.2976 11.7188 17.3475C11.6216 17.3973 11.5125 17.4194 11.4035 17.4112C11.2945 17.403 11.1899 17.3649 11.1012 17.3011L6.50163 13.9911L1.90046 17.3003C1.81181 17.3641 1.70728 17.4022 1.59838 17.4104C1.48948 17.4186 1.38042 17.3966 1.28321 17.3469C1.18599 17.2971 1.10438 17.2215 1.04735 17.1284C0.990317 17.0352 0.96008 16.9282 0.959961 16.819V4.94714C0.959961 4.26476 1.23104 3.61033 1.71355 3.12782C2.19607 2.6453 2.8505 2.37423 3.53288 2.37423H6.18338C5.99496 2.74314 5.85721 3.14214 5.77963 3.56173H3.53288C3.16544 3.56173 2.81306 3.70769 2.55324 3.96751C2.29342 4.22732 2.14746 4.57971 2.14746 4.94714V15.66L6.15409 12.7783C6.2551 12.7056 6.3764 12.6665 6.50084 12.6665C6.62528 12.6665 6.74657 12.7056 6.84759 12.7783L10.8542 15.66V8.6371C11.2529 8.56381 11.6393 8.43482 12.0021 8.25393L12.0417 8.29352V8.29352Z"
    fill="white"
  />
</svg>
